<?xml version="1.0" encoding="UTF-8"?>
<svg id="_Слой_2" data-name="Слой_2" xmlns="http://www.w3.org/2000/svg" version="1.1" viewBox="0 0 841.89 595.28">
  <!-- Generator: Adobe Illustrator 29.8.2, SVG Export Plug-In . SVG Version: 2.1.1 Build 3)  -->
  <defs>
    <style>
      .st0, .st1, .st2, .st3 {
        fill: none;
        stroke: #000;
        stroke-miterlimit: 10;
      }

      .st1 {
        stroke-width: 1.27px;
      }

      .st2 {
        stroke-width: .93px;
      }

      .st3 {
        stroke-width: 1.54px;
      }
    </style>
  </defs>
  <path class="st0" d="M474.6,260.1c3.38,2.11-3.96,9.44-8.93,12.46s-17.15,1.08-22.89-.88-14.87-12.23-14.87-12.23c0,0,12.98,5.85,18.2,4.49s9.2-4.49,15.07-5.01c3.38-.3,10.05-.94,13.43,1.17Z"/>
  <path d="M442.11,158.62c.04.6-.58,1.3-1.4,1.57s-1.52-.01-1.56-.61.58-1.3,1.4-1.57,1.52.01,1.56.61Z"/>
  <path class="st0" d="M447.59,151.83c-9.86-3.05-14.87,4.89-16.92,9.98s6.46,8.98,9.1,5.09c2.49-3.68,8.71-6.83,9.88-7.05,1.1-.21,5.05-5.81-2.05-8.01Z"/>
  <path class="st0" d="M411.65,184.5s-2.87-4.76,2.02-7.11,33.65,1.89,37.57,4.5,1.41,7.83,1.41,7.83"/>
  <path class="st0" d="M345.32,219.91c-.58,1.67-1,3.38-1.28,5.13-.08.54-.15,1.09-.21,1.63"/>
  <path class="st2" d="M497.39,230.17c-.31-.31-.06-.18-.37-.48-4.08-3.95-9.06-7.64-14.8-10.96-14.19-8.23-32.99-14.24-54.14-16.47-20.12-2.11-39.21-.47-54.97,4.03-11.24,3.2-20.78,7.85-27.79,13.62.53-1.56,1.18-3.08,1.96-4.56,10.75-20.58,44.13-33.7,81.08-30.32,37.81,3.44,66.05,22.57,69.03,45.14Z"/>
  <path class="st0" d="M488.71,331.43c-5.7-2.42-12.1-4.38-19.05-5.81-12.93-2.68-27.75-3.51-43.42-2.05-27.79,2.59-52.25,11.81-67.93,24.12-4.15,3.26-7.68,6.74-10.5,10.37-.02.02-.04.04-.04.06-.62.8-1.2,1.61-1.76,2.43-.01.01-.02.03-.03.04-.5.74-.97,1.49-1.4,2.25-15.13,3.34-7.86-47.81-8.92-55.88q-1.06-8.07-1.06-12.25c0-2.41.12-4.78.36-7.13.79-7.99,2.91-15.6,6.14-22.59,2.55-5.54,5.8-10.7,9.62-15.36-1.82-2.49-3.32-5.08-4.46-7.75.67-.44,1.36-.87,2.06-1.29,7.63-4.6,17.12-8.19,27.86-10.55h.01c3.81-.84,7.77-1.52,11.86-2.03,11.26-1.42,23.5-1.58,36.15-.25.3.03.6.07.9.1,2.7.35,5.59,1.06,8.59,2,.55.17,1.11.35,1.66.54,2.09.7,4.23,1.51,6.39,2.38.31.12.61.25.92.38,4.64,1.89,9.34,4.05,13.85,6.08.75.34,1.5.68,2.24,1.01.92.41,1.83.81,2.72,1.19.7.31,1.38.6,2.06.89,1.91.8,3.75,1.54,5.49,2.17.26.1.52.19.78.28,1.3.46,2.54.86,3.72,1.17.14.04.28.08.42.11.13.04.26.07.39.1,1.13.28,2.2.49,3.2.6.14,0,.28.03.42.04h-.03c-3.86.86-2.01,18.72,3.13,17.02-2.74,2-5.76,3.83-9.01,5.49,2.48,6.45,4.03,13.36,4.51,20.56,0,0,5.97,4.88,9.3,6.33,3.04,1.32-9.56,12.65-11.13,15.28h0c-.14.25-.18.41-.12.49.68.86,7.43,15.32,14.11,19.46Z"/>
  <path class="st3" d="M511.66,380.69c-1.47-1.53-3.12-3-4.92-4.39-11.17-8.64-28.39-14.49-48.65-16.25-7.63-.67-15.69-.75-24.03-.19h-.01c-1.39.1-2.8.21-4.21.34-10.25.95-20.04,2.81-29.11,5.39h-.02c-9.61,2.74-18.41,6.29-26.06,10.44-5.09,2.77-9.68,5.8-13.66,9.03-5.05,4.1-9.14,8.53-12.06,13.16-5.3-5.51-8.41-11.88-8.74-18.86-.26-5.63,1.29-11.2,4.39-16.52.43-.76.9-1.51,1.4-2.25.01-.01.02-.03.03-.04.56-.82,1.14-1.63,1.76-2.43,0-.02.02-.04.04-.06,2.82-3.63,6.35-7.11,10.5-10.37,15.68-12.31,40.14-21.53,67.93-24.12,15.67-1.46,30.49-.63,43.42,2.05,6.95,1.43,13.35,3.39,19.05,5.81.73.31,1.45.62,2.15.95,15.51,7.12,25.34,17.82,25.94,30.54.29,6.07-1.55,12.08-5.14,17.77Z"/>
  <path class="st3" d="M511.66,380.69c-11.96,18.96-43.41,34.53-80.91,38.02-35.81,3.33-67.18-5.28-81.82-20.49,2.92-4.63,7.01-9.06,12.06-13.16,3.98-3.23,8.57-6.26,13.66-9.03,7.65-4.15,16.45-7.7,26.06-10.44h.02c9.07-2.58,18.86-4.44,29.11-5.39,1.41-.13,2.82-.24,4.21-.33h.01c8.34-.57,16.4-.49,24.03.18,20.26,1.76,37.48,7.61,48.65,16.25,1.8,1.39,3.45,2.86,4.92,4.39Z"/>
  <path class="st1" d="M481.99,246.46c-.95.32-2.06.44-3.3.39-.04,0-.09,0-.13-.01-.2-.01-.4-.02-.61-.04h-.03c-.13-.01-.26-.03-.39-.04-1-.11-2.07-.32-3.2-.6-.13-.03-.26-.06-.39-.1-.14-.03-.28-.07-.42-.11-1.18-.31-2.42-.71-3.72-1.17-.26-.09-.52-.18-.78-.28-1.74-.63-3.58-1.37-5.49-2.17-.68-.29-1.36-.58-2.06-.89-.89-.38-1.8-.78-2.72-1.19-.74-.33-1.49-.67-2.24-1.01-4.51-2.03-9.21-4.19-13.85-6.08-.31-.13-.61-.26-.92-.38-2.16-.87-4.3-1.68-6.39-2.38-.55-.19-1.11-.37-1.66-.54-3-.94-5.89-1.65-8.59-2-.3-.03-.6-.07-.9-.1-12.65-1.33-24.89-1.17-36.15.25-4.09.51-8.05,1.19-11.86,2.03h-.01c-10.74,2.36-20.23,5.95-27.86,10.55-.7.42-1.39.85-2.06,1.29-2.09-4.88-2.96-10-2.43-15.21.06-.54.13-1.09.21-1.63.28-1.75.7-3.46,1.28-5.13,7.01-5.77,16.55-10.42,27.79-13.62,15.76-4.5,34.85-6.14,54.97-4.03,21.15,2.23,39.95,8.24,54.14,16.47,5.74,3.32,10.72,7.01,14.8,10.96,3.6,11.78-15.03,16.77-15.03,16.77Z"/>
  <path class="st0" d="M488.71,331.43c.72.45,1.44.77,2.15.95.01,0,.03,0,.04,0"/>
  <path class="st1" d="M497.02,229.69c3.6,11.78-15.03,16.77-15.03,16.77"/>
  <path class="st1" d="M481.08,263.81s-.02.01-.03.01c-5.14,1.7-6.99-16.16-3.13-17.02h.03c.22-.05.47-.03.74.05"/>
  <path class="st0" d="M423.66,176.86c.07-.13-10.52-32.89,2.93-34.3,12.87-1.35,41.81,2.59,41.67,13.5-.16,12.91-17.72-1.1-24.06,22.93"/>
  <path class="st0" d="M474.6,311.97s-19.43-17.05-29.21-17.05"/>
  <path class="st0" d="M476.55,289.87s-76.75-20.73-94.56.68"/>
  <path class="st0" d="M410.66,276.01c2.64-.68,11.74-20.89,11.74-20.89,0,0-10.48,11.61-21.65,7.78s-39.59-11.84-45.36-15.55,18.01,7.82,23.48,19.14,14.8,7.96,22.43,7.17,19.37-15.46,21.1-18.54"/>
  <path class="st0" d="M430.21,252.47c-.74.75-2.93,1.93-2.97,3.59-.04,1.82.39,2.61-1.04,4.3"/>
</svg>